<?xml version="1.0" standalone="no"?>
<!DOCTYPE svg PUBLIC "-//W3C//DTD SVG 20010904//EN"
 "http://www.w3.org/TR/2001/REC-SVG-20010904/DTD/svg10.dtd">
<svg version="1.0" xmlns="http://www.w3.org/2000/svg"
 width="2000.000000pt" height="700.000000pt" viewBox="0 0 2000.000000 700.000000"
 preserveAspectRatio="xMidYMid meet">

<defs>
  <!-- Gradient für die Sichel -->
  <linearGradient id="crescentGradient" x1="0%" y1="0%" x2="0%" y2="100%">
    <stop offset="0%" style="stop-color:#000066;stop-opacity:1" />
    <stop offset="100%" style="stop-color:#3366CC;stop-opacity:1" />
  </linearGradient>
  
  <!-- Gradient für den großen LYD Text -->
  <linearGradient id="textGradient" x1="0" y1="250" x2="0" y2="600" gradientUnits="userSpaceOnUse">
    <stop offset="0%" style="stop-color:#3366CC;stop-opacity:1" />
    <stop offset="100%" style="stop-color:#000066;stop-opacity:1" />
  </linearGradient>
</defs>

<!-- Sichel-Form mit eigenem Gradient -->
<g transform="translate(0.000000,700.000000) scale(0.100000,-0.100000)"
fill="url(#crescentGradient)" stroke="none">
<path d="M3049 5306 c-8 -7 -66 -45 -131 -84 -386 -239 -848 -602 -1168 -922
-612 -610 -818 -1104 -650 -1558 46 -122 119 -239 257 -408 43 -53 118 -148
166 -212 294 -387 385 -708 302 -1067 -68 -294 -287 -641 -619 -983 -51 -52
-65 -72 -52 -72 34 0 328 159 471 255 371 248 627 534 751 839 54 131 92 298
106 456 15 181 2 423 -54 965 -39 382 -42 431 -42 715 -1 310 3 369 45 610 82
474 274 935 576 1379 61 90 73 116 42 87z"/>
</g>

<!-- LYD WOHNEN Logo -->
<g fill="url(#textGradient)">
  <!-- LYD - Haupttext -->
  <text x="370" y="560" font-family="system-ui, -apple-system, sans-serif" font-size="360" font-weight="500" letter-spacing="25px">LYD</text>
  <!-- WOHNEN - kleiner Zusatztext neben LYD, bündig unten ausgerichtet -->
  <text x="1065" y="560" font-family="system-ui, -apple-system, sans-serif" font-size="120" font-weight="300" letter-spacing="4px">WOHNEN</text>
</g>
</svg>
